<?xml version="1.0" encoding="utf-8"?>
<!-- Generator: Adobe Illustrator 22.0.1, SVG Export Plug-In . SVG Version: 6.00 Build 0)  -->
<svg version="1.1" id="Layer_1" xmlns="http://www.w3.org/2000/svg" xmlns:xlink="http://www.w3.org/1999/xlink" x="0px" y="0px"
	 viewBox="0 0 24 24" style="enable-background:new 0 0 24 24;" xml:space="preserve">
<style type="text/css">
	.st0{fill:#EF8200;}
</style>
<path class="st0" d="M22,15.4c0-1.6,0-8.2-0.1-8.9s-0.3-0.8-1.4-0.9s-8.2-0.1-8.9-0.1c-1.9,0-8.3,0.2-8.9,0.2S2,9.6,2,11.3
	s0.1,6,0.1,6.5s0.9,0.7,3.4,0.7c2.1,0,3.9,0,3.7,0c0.7-2.1,1.2-4.3,3-4.3s2.9,4.4,2.9,4.4s4.9-0.1,6-0.1S22,18.2,22,15.4z M6.8,14.5
	c-1.6,0-2.9-1.3-2.9-2.9s1.3-2.9,2.9-2.9s2.9,1.3,2.9,2.9l0,0C9.6,13.2,8.4,14.5,6.8,14.5z M17.1,14.5c-1.6,0-2.9-1.3-2.9-2.9
	c0-1.6,1.3-2.9,2.9-2.9c1.6,0,2.9,1.3,2.9,2.9v0C20,13.2,18.7,14.5,17.1,14.5z"/>
</svg>
